<svg id="Layer_1" data-name="Layer 1" xmlns="http://www.w3.org/2000/svg" xmlns:xlink="http://www.w3.org/1999/xlink" viewBox="0 0 865.53 546.6"><defs><style>.cls-1{fill:url(#linear-gradient);}.cls-2{fill:url(#linear-gradient-2);}</style><linearGradient id="linear-gradient" x1="270.34" y1="393.53" x2="270.34" y2="867.27" gradientTransform="translate(141.14 -137.11) rotate(11.95)" gradientUnits="userSpaceOnUse"><stop offset="0.08" stop-color="#fe5d06"/><stop offset="0.15" stop-color="#e5661d"/><stop offset="0.29" stop-color="#a47e57"/><stop offset="0.5" stop-color="#3da4b5"/><stop offset="0.54" stop-color="#25adca"/></linearGradient><linearGradient id="linear-gradient-2" x1="712.38" y1="442.98" x2="712.38" y2="915.67" xlink:href="#linear-gradient"/></defs><path class="cls-1" d="M420.26,425.31q82.46,43.59,63.1,135.12-12,56.57-50.81,91.5T353,678.26q-44.46-9.4-55.43-52.2,7.81-4.78,37.73-12.43a13.82,13.82,0,0,1,2.4,5.57q.54,36.24,31.29,42.74,24.58,5.2,46.6-16.14t30.65-62.22q11.26-53.22-11.1-91.86T364.94,443l-.06-6.46q31.38-5.17,54.74-28.89t29.75-53.88q9.35-44.22-18.16-82.63t-76.53-48.79q-73.37-15.51-143.47,25.53T126.89,356.08q-6.83,32.22,3.75,55.05t33.88,27.77Q192,444.69,223.8,411l6.33,5.64Q213,444.86,189,457t-49.08,6.81q-27.09-5.73-39.36-29.82t-5.38-56.65q11.23-53.15,56.56-99.78t108.65-67.45q63.32-20.81,125-7.76,55.88,11.82,83,48.55t16.86,85.4Q473.69,391.13,420.26,425.31Zm-25-147.49a147.28,147.28,0,0,0-41,75.49q-4.94,23.31-7.79,73.2-2.52,50-7.73,74.66-15.09,71.3-67.2,110.78T158.26,638.5q-39.82-8.43-61.33-37.33t-17.66-72.5q20.74-4.93,48.18-5.93l.35,5.09a57.69,57.69,0,0,0-13.49,26.52Q109.53,577,124.07,598t42,26.79q41.82,8.85,78.06-21.09T293,513.72q4-18.86,8.4-56.61t8.24-55.92q18.79-88.79,81.23-130Z" transform="translate(-78.69 -197.29)"/><path class="cls-2" d="M944.21,344.18q-38.46,21.22-84.69,11.45-25.34-5.36-58.94-25.72-33.27-20.28-53.47-24.56-31.15-6.6-54.17,10t-30.19,50.56q-7.47,35.31,8.54,61.26t47.19,32.54q13,2.76,39.56,2.64l-.92,14.49q-67-5.58-112,24.48t-56.56,84.92q-10.89,51.42,13,89.07t72.25,47.88q50.73,10.72,95.2-17.47t54-73.45q6.6-31.18-7.2-57.39t-39.16-31.57q-20.93-4.43-40.43,7.39t-23.57,31q-2.9,13.72,3.16,24.85t17.38,13.52q13,2.76,25.65-7.82l7,5.78q-16.12,35.63-49.38,28.59-17.14-3.63-25-18t-3.67-34.26q7.32-34.62,42.09-55.92t73.86-13Q836,532.24,851,557.08t8.46,55.69q-12.84,60.69-70.71,101.45T658.89,739.75Q594.09,726,561.76,680T541,579.42q9-42.51,45.28-72.26t93.39-38.09Q605,435.74,618.21,373.35q9.79-46.29,65.07-73.09T797.86,286q24.33,5.14,59,25.73t52.86,24.44q13.69,2.9,31.29-2.34Z" transform="translate(-78.69 -197.29)"/></svg>